<svg width="64" height="64" viewBox="0 0 500 400" fill="none" xmlns="http://www.w3.org/2000/svg">
  <!-- Lotus petals -->
  <path d="M250 140 c-30 -50 -80 -90 -115 -90 c-35 0 -65 40 -65 90 c0 50 30 90 65 90 c35 0 85 -40 115 -90 Z" fill="#B23092"/>
  <path d="M250 140 c30 -50 80 -90 115 -90 c35 0 65 40 65 90 c0 50 -30 90 -65 90 c-35 0 -85 -40 -115 -90 Z" fill="#B23092"/>
  <path d="M250 80 c0 -60 -20 -80 -50 -80 c-30 0 -50 20 -50 80 c0 60 20 120 50 120 c30 0 50 -60 50 -120 Z" fill="#B23092"/>
  <path d="M250 80 c0 -60 20 -80 50 -80 c30 0 50 20 50 80 c0 60 -20 120 -50 120 c-30 0 -50 -60 -50 -120 Z" fill="#B23092"/>
  <path d="M250 140 c0 -70 0 -90 0 -90 c0 -50 0 -50 0 -50 c0 0 0 0 0 50 c0 0 0 20 0 90 c0 70 0 70 0 70 c0 0 0 0 0 -70 Z" fill="#B23092"/>

  <!-- Leaves -->
  <path d="M150 270 c-50 -20 -100 -10 -120 20 c-20 30 0 60 30 70 c30 10 80 0 120 -20 c40 -20 40 -50 -30 -70 Z" fill="#7A9A3A"/>
  <path d="M350 270 c50 -20 100 -10 120 20 c20 30 0 60 -30 70 c-30 10 -80 0 -120 -20 c-40 -20 -40 -50 30 -70 Z" fill="#7A9A3A"/>

  <!-- Stems -->
  <path d="M50 320 c20 -10 60 -20 100 -10 c40 10 100 20 120 0 c20 -20 -20 -10 -60 0 c-40 10 -80 0 -120 10 c-40 10 -60 10 -40 0 Z" fill="#7A9A3A"/>
  <path d="M450 320 c-20 -10 -60 -20 -100 -10 c-40 10 -100 20 -120 0 c-20 -20 20 -10 60 0 c40 10 80 0 120 10 c40 10 60 10 40 0 Z" fill="#7A9A3A"/>
</svg>